<svg width="16" height="18" viewBox="0 0 16 18" fill="none" xmlns="http://www.w3.org/2000/svg">
<path fill-rule="evenodd" clip-rule="evenodd" d="M15.1891 7.65366C15.7083 8.00779 16 8.48782 16 8.98833C16 9.48883 15.7083 9.96886 15.1891 10.323L4.73352 17.4471C4.21334 17.8012 3.50792 18.0001 2.77245 18C2.03697 17.9999 1.3317 17.8008 0.811761 17.4465C0.291826 17.0921 -0.000173261 16.6117 7.71288e-08 16.1107C0.000173415 15.6098 0.292505 15.1294 0.812685 14.7752L9.30874 8.98833L0.812685 3.20141C0.307333 2.84537 0.0275092 2.36837 0.0334818 1.87316C0.0394545 1.37795 0.330745 0.904154 0.844617 0.553811C1.35849 0.203468 2.05382 0.00461441 2.78086 7.9299e-05C3.5079 -0.00445581 4.20846 0.185691 4.73167 0.529564L15.1909 7.6524L15.1891 7.65366Z" fill="#0089D0"/>
</svg>
